<svg xmlns="http://www.w3.org/2000/svg" viewBox="0 0 1200 630">
  <rect width="1200" height="630" fill="#101211"/>
  <path d="M0 1h1200M0 629h1200" stroke="#28302c"/>
  <g transform="translate(94 108)">
    <rect width="64" height="64" rx="6" fill="#173424" stroke="#54d58b" stroke-width="2"/>
    <path d="M32 17v13M15 47V30h34v17" fill="none" stroke="#72cf99" stroke-width="3"/>
    <rect x="25" y="9" width="14" height="12" rx="2" fill="#101211" stroke="#72cf99" stroke-width="2"/>
    <rect x="8" y="44" width="14" height="12" rx="2" fill="#101211" stroke="#72cf99" stroke-width="2"/>
    <rect x="42" y="44" width="14" height="12" rx="2" fill="#101211" stroke="#72cf99" stroke-width="2"/>
  </g>
  <text x="94" y="258" fill="#e2e6e4" font-family="Inter,Arial,sans-serif" font-size="82" font-weight="700" letter-spacing="-3">Hypotree</text>
  <text x="98" y="318" fill="#84dca8" font-family="Inter,Arial,sans-serif" font-size="25" font-weight="600" letter-spacing="3">REASON FROM EVIDENCE</text>
  <text x="98" y="389" fill="#8d9792" font-family="Inter,Arial,sans-serif" font-size="29">Build hypotheses. Record observations.</text>
  <text x="98" y="432" fill="#8d9792" font-family="Inter,Arial,sans-serif" font-size="29">Test ideas. Share the reasoning.</text>
  <g transform="translate(810 118)" fill="#173424" stroke="#54d58b" stroke-width="3">
    <path d="M150 88v58M55 208v-62h190v62" fill="none"/>
    <rect x="82" width="136" height="88" rx="4"/>
    <rect y="208" width="110" height="72" rx="4"/>
    <rect x="190" y="208" width="110" height="72" rx="4"/>
  </g>
  <text x="98" y="560" fill="#58615c" font-family="ui-monospace,monospace" font-size="18">cdaringe.github.io/hypotree</text>
</svg>
